<svg width="104" height="104" viewBox="0 0 104 104" fill="none" xmlns="http://www.w3.org/2000/svg">
<g filter="url(#filter0_di_1130_13)">
<rect x="4" width="96" height="96" rx="20" fill="url(#paint0_radial_1130_13)"/>
<rect x="5.5" y="1.5" width="93" height="93" rx="18.5" stroke="url(#paint1_linear_1130_13)" stroke-width="3"/>
</g>
<g filter="url(#filter1_d_1130_13)">
<path d="M72.9065 38.1506C72.2426 37.9259 71.5547 37.7133 70.8463 37.5122C70.9627 37.0449 71.0696 36.5836 71.1646 36.1302C72.7242 28.6852 71.7045 22.6874 68.2225 20.7126C64.8838 18.8191 59.4235 20.7934 53.9089 25.5132C53.3786 25.9671 52.8469 26.4476 52.3153 26.9512C51.9611 26.618 51.6075 26.296 51.2549 25.988C45.4754 20.9413 39.6824 18.8145 36.2039 20.795C32.8683 22.694 31.8805 28.3325 33.2843 35.3882C33.4199 36.0697 33.5784 36.7657 33.7576 37.4733C32.9377 37.7022 32.1462 37.9462 31.3888 38.2058C24.613 40.529 20.2857 44.1702 20.2857 47.947C20.2857 51.8477 24.9311 55.7602 31.9886 58.1325C32.5456 58.3197 33.1235 58.4967 33.719 58.6648C33.5257 59.4301 33.3576 60.1801 33.2164 60.9116C31.8779 67.8448 32.9232 73.3501 36.2499 75.2371C39.686 77.1859 45.4528 75.1828 51.0683 70.3554C51.5121 69.9738 51.9575 69.5692 52.4037 69.145C52.9821 69.6927 53.5595 70.2111 54.1339 70.6973C59.5731 75.3005 64.9452 77.1593 68.2688 75.267C71.7015 73.3127 72.8171 67.3987 71.3688 60.2034C71.2581 59.6538 71.1294 59.0924 70.9848 58.5211C71.3898 58.4033 71.7874 58.2818 72.1751 58.1554C79.512 55.7647 84.2857 51.8998 84.2857 47.947C84.2857 44.1565 79.8188 40.4908 72.9065 38.1506ZM71.3152 55.6031C70.9653 55.7171 70.6062 55.8272 70.2403 55.934C69.4303 53.4122 68.3371 50.7306 66.9994 47.9601C68.276 45.2556 69.3269 42.6083 70.1142 40.1029C70.7689 40.2892 71.4043 40.4857 72.0166 40.6931C77.939 42.6981 81.5516 45.6627 81.5516 47.947C81.5516 50.3802 77.6501 53.5388 71.3152 55.6031ZM68.6866 60.7256C69.3271 63.9073 69.4186 66.7839 68.9943 69.0326C68.6132 71.0533 67.8466 72.4005 66.8988 72.9401C64.8819 74.0882 60.5687 72.5958 55.917 68.6591C55.3837 68.2078 54.8466 67.726 54.3078 67.216C56.1111 65.2763 57.9134 63.0214 59.6724 60.5171C62.7664 60.2471 65.6894 59.8057 68.3402 59.203C68.4708 59.721 68.5867 60.2289 68.6866 60.7256ZM42.1048 72.7417C40.1342 73.4261 38.5647 73.4457 37.616 72.9077C35.5972 71.7626 34.758 67.3424 35.9028 61.413C36.0339 60.734 36.19 60.0364 36.3698 59.3235C38.9916 59.8936 41.8932 60.3039 44.9945 60.5511C46.7654 63.0017 48.6198 65.2541 50.4885 67.2264C50.0802 67.614 49.6735 67.9831 49.2691 68.3308C46.786 70.4654 44.2977 71.9799 42.1048 72.7417ZM32.8729 55.5882C29.7522 54.5392 27.175 53.1759 25.4084 51.6882C23.8211 50.3513 23.0197 49.024 23.0197 47.947C23.0197 45.6551 26.4941 42.7318 32.2888 40.7448C32.9919 40.5037 33.7279 40.2765 34.4918 40.0631C35.2926 42.6251 36.3432 45.3037 37.611 48.0124C36.3268 50.7613 35.2613 53.4826 34.4526 56.0747C33.908 55.9207 33.3805 55.7587 32.8729 55.5882ZM35.9675 34.8718C34.7647 28.8267 35.5635 24.2664 37.5736 23.1221C39.7147 21.903 44.4493 23.6411 49.4394 27.9987C49.7584 28.2772 50.0786 28.5687 50.3998 28.8703C48.5403 30.834 46.7029 33.0695 44.9477 35.5056C41.9377 35.78 39.0565 36.2207 36.4074 36.8109C36.2409 36.1521 36.0934 35.5047 35.9675 34.8718ZM63.5742 41.5759C62.9409 40.5001 62.2908 39.4498 61.628 38.4282C63.67 38.682 65.6264 39.019 67.4637 39.4314C66.9121 41.17 66.2246 42.9878 65.4153 44.8512C64.8348 43.7673 64.2208 42.6744 63.5742 41.5759ZM52.3162 30.792C53.5773 32.1356 54.8402 33.6358 56.0824 35.2634C54.8307 35.2052 53.5634 35.175 52.2857 35.175C51.0201 35.175 49.7622 35.2046 48.5182 35.2617C49.7616 33.6492 51.0354 32.1511 52.3162 30.792ZM40.9862 41.5945C40.3536 42.6733 39.751 43.7602 39.1795 44.8492C38.3834 42.9922 37.7022 41.1662 37.1459 39.403C38.9719 39.0011 40.9191 38.6725 42.9481 38.4235C42.276 39.4545 41.6205 40.5128 40.9862 41.5945ZM43.0065 57.6623C40.9102 57.4323 38.9337 57.1206 37.1081 56.7298C37.6734 54.9352 38.3696 53.0701 39.1826 51.1731C39.7555 52.2613 40.3605 53.3487 40.997 54.4299C41.6453 55.5313 42.3171 56.6102 43.0065 57.6623ZM52.3919 65.2916C51.096 63.9165 49.8035 62.3956 48.5412 60.7595C49.7666 60.8068 51.016 60.831 52.2857 60.831C53.5902 60.831 54.8798 60.8021 56.149 60.7465C54.9028 62.412 53.6444 63.9354 52.3919 65.2916ZM65.4414 51.0765C66.2968 52.9939 67.018 54.8492 67.5905 56.6133C65.7349 57.0296 63.7314 57.365 61.6205 57.6141C62.2848 56.5787 62.9407 55.5103 63.5851 54.4114C64.2371 53.2996 64.8561 52.186 65.4414 51.0765ZM61.2168 53.0681C60.2164 54.774 59.1893 56.4026 58.1466 57.9398C56.2475 58.0734 54.2854 58.1422 52.2857 58.1422C50.2941 58.1422 48.3567 58.0813 46.4912 57.9622C45.4065 56.4048 44.357 54.7715 43.363 53.0828C42.3716 51.3987 41.4593 49.7003 40.6325 48.0115C41.4591 46.3188 42.3692 44.6185 43.3549 42.9375C44.3433 41.2519 45.3832 39.6268 46.4579 38.0792C48.3613 37.9377 50.3131 37.8638 52.2856 37.8638C54.267 37.8638 56.2214 37.9382 58.1242 38.081C59.1825 39.6173 60.2156 41.2374 61.2078 42.9232C62.2114 44.6279 63.1332 46.3169 63.9669 47.9733C63.1357 49.6582 62.2159 51.3642 61.2168 53.0681ZM66.8569 23.0421C69 24.2575 69.8335 29.1595 68.4869 35.5875C68.401 35.9977 68.3043 36.4155 68.1993 36.8388C65.5441 36.2363 62.6608 35.7879 59.642 35.5094C57.8835 33.0466 56.0611 30.8075 54.2319 28.8691C54.7237 28.4038 55.2148 27.9602 55.7038 27.5415C60.4288 23.4976 64.8448 21.901 66.8569 23.0421ZM52.2857 42.3265C55.4419 42.3265 58.0007 44.8428 58.0007 47.947C58.0007 51.051 55.4419 53.5674 52.2857 53.5674C49.1295 53.5674 46.5707 51.051 46.5707 47.947C46.5707 44.8428 49.1295 42.3265 52.2857 42.3265Z" fill="#42C1F4"/>
</g>
<g filter="url(#filter2_d_1130_13)">
<rect x="4" width="96" height="96" rx="20" fill="url(#paint2_linear_1130_13)" fill-opacity="0.4" shape-rendering="crispEdges"/>
</g>
<defs>
<filter id="filter0_di_1130_13" x="0" y="0" width="104" height="104" filterUnits="userSpaceOnUse" color-interpolation-filters="sRGB">
<feFlood flood-opacity="0" result="BackgroundImageFix"/>
<feColorMatrix in="SourceAlpha" type="matrix" values="0 0 0 0 0 0 0 0 0 0 0 0 0 0 0 0 0 0 127 0" result="hardAlpha"/>
<feOffset dy="4"/>
<feGaussianBlur stdDeviation="2"/>
<feComposite in2="hardAlpha" operator="out"/>
<feColorMatrix type="matrix" values="0 0 0 0 0.258824 0 0 0 0 0.75611 0 0 0 0 0.956863 0 0 0 1 0"/>
<feBlend mode="normal" in2="BackgroundImageFix" result="effect1_dropShadow_1130_13"/>
<feBlend mode="normal" in="SourceGraphic" in2="effect1_dropShadow_1130_13" result="shape"/>
<feColorMatrix in="SourceAlpha" type="matrix" values="0 0 0 0 0 0 0 0 0 0 0 0 0 0 0 0 0 0 127 0" result="hardAlpha"/>
<feMorphology radius="3" operator="erode" in="SourceAlpha" result="effect2_innerShadow_1130_13"/>
<feOffset/>
<feGaussianBlur stdDeviation="7.4"/>
<feComposite in2="hardAlpha" operator="arithmetic" k2="-1" k3="1"/>
<feColorMatrix type="matrix" values="0 0 0 0 0 0 0 0 0 0.340653 0 0 0 0 0.478174 0 0 0 1 0"/>
<feBlend mode="normal" in2="shape" result="effect2_innerShadow_1130_13"/>
</filter>
<filter id="filter1_d_1130_13" x="16.2857" y="16" width="72" height="64" filterUnits="userSpaceOnUse" color-interpolation-filters="sRGB">
<feFlood flood-opacity="0" result="BackgroundImageFix"/>
<feColorMatrix in="SourceAlpha" type="matrix" values="0 0 0 0 0 0 0 0 0 0 0 0 0 0 0 0 0 0 127 0" result="hardAlpha"/>
<feOffset/>
<feGaussianBlur stdDeviation="2"/>
<feComposite in2="hardAlpha" operator="out"/>
<feColorMatrix type="matrix" values="0 0 0 0 0 0 0 0 0 0.414189 0 0 0 0 0.581396 0 0 0 1 0"/>
<feBlend mode="normal" in2="BackgroundImageFix" result="effect1_dropShadow_1130_13"/>
<feBlend mode="normal" in="SourceGraphic" in2="effect1_dropShadow_1130_13" result="shape"/>
</filter>
<filter id="filter2_d_1130_13" x="0" y="0" width="104" height="104" filterUnits="userSpaceOnUse" color-interpolation-filters="sRGB">
<feFlood flood-opacity="0" result="BackgroundImageFix"/>
<feColorMatrix in="SourceAlpha" type="matrix" values="0 0 0 0 0 0 0 0 0 0 0 0 0 0 0 0 0 0 127 0" result="hardAlpha"/>
<feOffset dy="4"/>
<feGaussianBlur stdDeviation="2"/>
<feComposite in2="hardAlpha" operator="out"/>
<feColorMatrix type="matrix" values="0 0 0 0 0 0 0 0 0 0 0 0 0 0 0 0 0 0 0.25 0"/>
<feBlend mode="normal" in2="BackgroundImageFix" result="effect1_dropShadow_1130_13"/>
<feBlend mode="normal" in="SourceGraphic" in2="effect1_dropShadow_1130_13" result="shape"/>
</filter>
<radialGradient id="paint0_radial_1130_13" cx="0" cy="0" r="1" gradientUnits="userSpaceOnUse" gradientTransform="translate(52 48) rotate(90) scale(48)">
<stop/>
<stop offset="0.78"/>
</radialGradient>
<linearGradient id="paint1_linear_1130_13" x1="15" y1="11.5" x2="52" y2="96" gradientUnits="userSpaceOnUse">
<stop stop-color="#03B7FF"/>
<stop offset="1" stop-color="#00374E"/>
</linearGradient>
<linearGradient id="paint2_linear_1130_13" x1="52" y1="0" x2="52" y2="92.5" gradientUnits="userSpaceOnUse">
<stop stop-color="#1E5971"/>
<stop offset="1" stop-color="#0063F7" stop-opacity="0"/>
</linearGradient>
</defs>
</svg>
