<svg width="20" height="20" viewBox="0 0 20 20" fill="none" xmlns="http://www.w3.org/2000/svg">
<g clip-path="url(#clip0_1046_45)">
<path d="M17.8917 17.3576L15.4909 14.9567C15.4154 14.8816 15.317 14.8339 15.2113 14.8212C15.1056 14.8085 14.9986 14.8316 14.9075 14.8867C14.0171 15.4239 12.997 15.7078 11.9571 15.7078C10.9173 15.7078 9.89711 15.4239 9.00671 14.8867C8.91546 14.8321 8.80866 14.8094 8.70308 14.822C8.5975 14.8347 8.49912 14.8821 8.42338 14.9567L6.02254 17.3576C5.94731 17.4308 5.89818 17.5267 5.88267 17.6306C5.86717 17.7344 5.88615 17.8405 5.93671 17.9326C5.97082 17.9938 6.01806 18.0467 6.07504 18.0876C7.784 19.33 9.84259 19.9992 11.9555 19.9992C14.0683 19.9992 16.1269 19.33 17.8359 18.0876C17.8926 18.0467 17.9398 17.994 17.9741 17.9332C18.0085 17.8723 18.0293 17.8047 18.035 17.7351C18.04 17.6655 18.0298 17.5957 18.005 17.5305C17.9803 17.4653 17.9416 17.4063 17.8917 17.3576ZM17.8934 2.63422L15.4934 5.03422C15.4181 5.10996 15.3195 5.15807 15.2135 5.17078C15.1074 5.18348 15.0002 5.16003 14.9092 5.10422C13.6669 4.35551 12.1864 4.10724 10.7678 4.40978C9.34923 4.71231 8.0988 5.54299 7.27004 6.73339C6.64101 7.63928 6.28736 8.70776 6.25171 9.81005C6.21512 10.9123 6.49816 12.0017 7.06671 12.9467C7.12163 13.0377 7.14465 13.1443 7.13212 13.2498C7.11959 13.3553 7.07223 13.4537 6.99754 13.5292L4.59671 15.9292C4.54865 15.9784 4.49046 16.0164 4.42617 16.0408C4.36189 16.0651 4.29307 16.0751 4.22452 16.0701C4.15597 16.0651 4.08933 16.0452 4.02926 16.0118C3.96919 15.9784 3.91713 15.9323 3.87671 15.8767C2.37295 13.8103 1.71797 11.2463 2.04641 8.71179C2.37484 6.17731 3.66174 3.86494 5.64254 2.25005C7.35278 0.854268 9.47712 0.0641501 11.6838 0.00309234C13.8905 -0.0579655 16.0552 0.613474 17.84 1.91255C17.8957 1.953 17.9419 2.00513 17.9753 2.06531C18.0087 2.12548 18.0285 2.19224 18.0334 2.26089C18.0385 2.32954 18.0286 2.39849 18.0044 2.46296C17.9803 2.52742 17.9424 2.58586 17.8934 2.63422ZM11.9617 12.8517C12.7191 12.8517 13.4455 12.5508 13.9811 12.0153C14.5167 11.4797 14.8175 10.7533 14.8175 9.99589C14.8175 9.23847 14.5167 8.51208 13.9811 7.97651C13.4455 7.44094 12.7191 7.14005 11.9617 7.14005C11.2043 7.14005 10.4779 7.44094 9.94233 7.97651C9.40676 8.51208 9.10588 9.23847 9.10588 9.99589C9.10588 10.7533 9.40676 11.4797 9.94233 12.0153C10.4779 12.5508 11.2043 12.8517 11.9617 12.8517Z" fill="white"/>
</g>
<defs>
<clipPath id="clip0_1046_45">
<rect width="20" height="20" fill="white"/>
</clipPath>
</defs>
</svg>
