<svg width="27" height="27" viewBox="0 0 27 27" fill="none" xmlns="http://www.w3.org/2000/svg">
<path fill-rule="evenodd" clip-rule="evenodd" d="M18.5705 9.03076C18.9091 10.0101 19.1529 11.01 19.2331 12.0463C19.3327 13.332 19.2871 14.6086 19.016 15.8732C19.0087 15.908 18.9931 15.9407 18.9815 15.9744C18.8964 15.9746 18.8097 15.9641 18.7266 15.9769C18.0244 16.0873 17.3229 16.2016 16.6213 16.3153C15.8961 16.4328 15.1698 16.5456 14.4459 16.6711C14.1894 16.7154 13.8719 16.6625 13.7683 17.0173C13.7654 17.027 13.7359 17.0287 13.7188 17.0342L13.7538 14.914L13.7181 9.79836L14.0561 9.74036C14.6087 9.64986 15.1614 9.55811 15.7145 9.47014C16.3745 9.36531 17.0351 9.26343 17.6956 9.16112C17.9869 9.11577 18.2786 9.07421 18.5705 9.03076Z" fill="#439934"/>
<path fill-rule="evenodd" clip-rule="evenodd" d="M13.021 23.2145C12.6645 22.908 12.2955 22.615 11.9538 22.2927C10.1151 20.5584 8.77015 18.5171 8.1078 16.0561C7.92534 15.3788 7.80363 14.6905 7.76461 13.9906C7.73719 13.5008 7.69753 13.0066 7.73212 12.5193C7.8243 11.2233 8.01161 9.93979 8.39172 8.69146L8.41261 8.66235C8.44952 8.7115 8.50268 8.75496 8.52145 8.81043C8.89249 9.90309 9.26079 10.9966 9.62718 12.0907C10.7785 15.529 11.9283 18.9681 13.0815 22.4056C13.1041 22.4726 13.1625 22.5277 13.2045 22.5882L13.021 23.2145Z" fill="#45A538"/>
<path fill-rule="evenodd" clip-rule="evenodd" d="M18.5705 9.03075C18.2786 9.0742 17.9866 9.11576 17.6953 9.16069C17.0349 9.26299 16.3742 9.36487 15.7142 9.46971C15.1611 9.55767 14.6085 9.64943 14.0558 9.73992L13.7179 9.79793L13.7153 9.5775C13.7042 9.3963 13.685 9.21532 13.6829 9.03412C13.6683 7.87861 13.6592 6.72309 13.6449 5.56758C13.636 4.84427 13.6227 4.12118 13.608 3.39809C13.5989 2.94879 13.5892 2.49928 13.569 2.05062C13.558 1.80952 13.5192 1.56968 13.5034 1.32858C13.4945 1.18999 13.5067 1.05035 13.5095 0.911133C13.6818 1.24505 13.8503 1.58149 14.0275 1.91288C14.3074 2.43684 14.7534 2.82286 15.1548 3.2441C16.7417 4.90882 17.8683 6.84438 18.5705 9.03075Z" fill="#46A037"/>
<path fill-rule="evenodd" clip-rule="evenodd" d="M13.7186 17.0339C13.7356 17.0284 13.7654 17.0268 13.7681 17.0171C13.8717 16.6623 14.1892 16.7152 14.4457 16.6709C15.1696 16.5456 15.8958 16.4325 16.6211 16.3151C17.3226 16.2014 18.0242 16.087 18.7264 15.9767C18.8095 15.9636 18.8962 15.9744 18.9812 15.9742C18.85 16.4425 18.7467 16.9209 18.5802 17.3763C18.3912 17.8929 18.1626 18.397 17.9198 18.8912C17.5563 19.6284 17.1065 20.3197 16.5797 20.9506C16.1749 21.4375 15.7237 21.8874 15.2715 22.3318C15.0215 22.5776 14.7268 22.7778 14.4526 22.9986L14.3815 22.9501L14.1255 22.7311L13.8605 22.1504C13.6795 21.473 13.5808 20.7763 13.5665 20.0752L13.5713 19.9569L13.6074 19.4452C13.6194 19.2705 13.6354 19.0961 13.6428 18.921C13.67 18.292 13.6937 17.6629 13.7186 17.0339Z" fill="#409433"/>
<path fill-rule="evenodd" clip-rule="evenodd" d="M13.7185 17.0339C13.6936 17.663 13.67 18.292 13.6432 18.9212C13.6358 19.0963 13.6198 19.2707 13.6078 19.4454L13.4464 19.5063C13.088 18.4512 12.7294 17.4073 12.3786 16.3606C11.7986 14.6291 11.2254 12.8947 10.6462 11.1627C10.1784 9.76472 9.70728 8.36782 9.23293 6.97202C9.21078 6.90663 9.14708 6.85558 9.10278 6.79779L10.1355 4.89893C10.171 4.96052 10.2178 5.01811 10.2402 5.08434C10.7185 6.49807 11.1943 7.91262 11.6678 9.32798C12.2829 11.1695 12.8942 13.0124 13.5088 14.8541C13.5333 14.9277 13.5738 14.9957 13.6124 15.0781L13.7537 14.9136L13.7185 17.0339Z" fill="#4FAA41"/>
<path fill-rule="evenodd" clip-rule="evenodd" d="M9.10303 6.79785C9.14733 6.85565 9.21082 6.9067 9.23318 6.97209C9.70753 8.36788 10.1786 9.76479 10.6465 11.1628C11.2257 12.8948 11.7988 14.6291 12.3789 16.3607C12.7295 17.4072 13.0881 18.4513 13.4467 19.5064L13.608 19.4455L13.572 19.9572L13.5393 20.0751C13.4831 20.6354 13.4359 21.1969 13.3676 21.7559C13.3332 22.036 13.2602 22.311 13.2047 22.5884C13.1629 22.5279 13.1043 22.4728 13.0817 22.4057C11.9285 18.9681 10.7787 15.5292 9.62742 12.0909C9.26115 10.9967 8.89257 9.90327 8.52169 8.81062C8.50291 8.75514 8.44997 8.71169 8.41284 8.66254L9.10303 6.79785Z" fill="#4AA73C"/>
<path fill-rule="evenodd" clip-rule="evenodd" d="M13.7535 14.9138L13.6122 15.0783C13.5736 14.9958 13.5331 14.9277 13.5086 14.8543C12.8942 13.0126 12.2827 11.1696 11.6676 9.32817C11.1941 7.9128 10.7182 6.49825 10.2399 5.08453C10.2178 5.01829 10.171 4.96049 10.1353 4.89911L11.4125 3.21899C11.4528 3.27278 11.5102 3.32067 11.5311 3.3812C11.8857 4.41923 12.2371 5.45852 12.5864 6.49844C12.9127 7.4696 13.2342 8.44223 13.5643 9.41212C13.5865 9.47709 13.6635 9.52307 13.7149 9.57792L13.7175 9.79835C13.7297 11.5031 13.7417 13.2086 13.7535 14.9138Z" fill="#57AE47"/>
<path fill-rule="evenodd" clip-rule="evenodd" d="M13.7153 9.57732C13.6639 9.52247 13.5869 9.47649 13.5647 9.41152C13.2346 8.44163 12.9132 7.469 12.5868 6.49784C12.2375 5.45792 11.8861 4.41884 11.5315 3.38061C11.5106 3.32007 11.4533 3.27218 11.413 3.21839C11.8283 2.81171 12.2308 2.39046 12.6628 2.00255C13.0469 1.65788 13.3557 1.28832 13.3698 0.743676C13.3705 0.721105 13.3823 0.698535 13.4004 0.635254L13.5099 0.910738C13.5072 1.05017 13.4947 1.1896 13.5038 1.32818C13.5196 1.56929 13.5584 1.80912 13.5694 2.05022C13.5896 2.49889 13.5993 2.94839 13.6084 3.39769C13.623 4.12078 13.6362 4.84388 13.6453 5.56718C13.6594 6.7227 13.6687 7.87821 13.6833 9.03373C13.685 9.21535 13.704 9.39612 13.7153 9.57732Z" fill="#60B24F"/>
<path fill-rule="evenodd" clip-rule="evenodd" d="M13.2043 22.5882C13.2597 22.3108 13.3327 22.0355 13.3671 21.7556C13.4357 21.1968 13.4827 20.6351 13.5388 20.0749L13.5527 20.0728L13.5667 20.0751C13.581 20.7761 13.6797 21.4729 13.8607 22.1503C13.8236 22.1992 13.7711 22.2429 13.7514 22.2981C13.5981 22.7306 13.4536 23.1664 13.2994 23.5988C13.2783 23.6578 13.2197 23.7038 13.1783 23.7557L13.0208 23.2145L13.2043 22.5882Z" fill="#A9AA88"/>
<path fill-rule="evenodd" clip-rule="evenodd" d="M13.1785 23.7561C13.2199 23.7042 13.2787 23.6582 13.2996 23.5991C13.4538 23.1667 13.5985 22.7311 13.7516 22.2985C13.7713 22.2432 13.8236 22.1996 13.8609 22.1506L14.1256 22.7316C14.0733 22.8058 14.0012 22.8727 13.9721 22.9554L13.465 24.4444C13.4441 24.5041 13.3728 24.5463 13.3251 24.5967L13.1785 23.7561Z" fill="#B6B598"/>
<path fill-rule="evenodd" clip-rule="evenodd" d="M13.3251 24.5963C13.373 24.5461 13.4441 24.5037 13.465 24.444L13.9721 22.955C14.001 22.8725 14.0733 22.8055 14.1256 22.7312L14.3819 22.9499C14.2581 23.0723 14.1893 23.2136 14.2307 23.3923L14.1529 23.6471C14.1174 23.6908 14.0662 23.7287 14.0486 23.7787C13.8717 24.2856 13.7027 24.7952 13.5245 25.3021C13.5019 25.3664 13.4393 25.4169 13.395 25.4734C13.372 25.1808 13.3485 24.8889 13.3251 24.5963Z" fill="#C2C1A7"/>
<path fill-rule="evenodd" clip-rule="evenodd" d="M13.3951 25.4735C13.4392 25.4168 13.5019 25.3664 13.5247 25.3022C13.7029 24.7956 13.8719 24.2859 14.0488 23.7788C14.0664 23.7291 14.1174 23.6909 14.153 23.6472L14.0457 24.8169C14.017 24.85 13.9754 24.8789 13.9617 24.9175C13.8404 25.2579 13.7261 25.6009 13.6044 25.9414C13.5793 26.0116 13.5312 26.0736 13.4937 26.1392C13.4603 26.0956 13.4006 26.0534 13.3979 26.0078C13.3871 25.8304 13.3945 25.6518 13.3951 25.4735Z" fill="#CECDB7"/>
<path fill-rule="evenodd" clip-rule="evenodd" d="M13.4935 26.1393C13.531 26.0734 13.5791 26.0114 13.6042 25.9414C13.7261 25.6012 13.8403 25.2582 13.9615 24.9175C13.9753 24.8789 14.017 24.8502 14.0455 24.8169L14.048 25.5847L13.7911 26.2437L13.4935 26.1393Z" fill="#DBDAC7"/>
<path fill-rule="evenodd" clip-rule="evenodd" d="M13.7911 26.2437L14.048 25.5847L14.1009 26.3643L13.7911 26.2437Z" fill="#EBE9DC"/>
<path fill-rule="evenodd" clip-rule="evenodd" d="M14.2307 23.3925C14.1893 23.2139 14.2579 23.0723 14.3819 22.9502L14.453 22.9987L14.2307 23.3925Z" fill="#CECDB7"/>
<path fill-rule="evenodd" clip-rule="evenodd" d="M13.5667 20.0754L13.5527 20.0731L13.5388 20.0752L13.5715 19.9573L13.5667 20.0754Z" fill="#4FAA41"/>
</svg>
