<svg width="27" height="27" viewBox="0 0 27 27" fill="none" xmlns="http://www.w3.org/2000/svg">
<g clip-path="url(#clip0_1037_177)">
<path d="M20.6719 0H6.32812C2.8332 0 0 2.8332 0 6.32812V20.6719C0 24.1668 2.8332 27 6.32812 27H20.6719C24.1668 27 27 24.1668 27 20.6719V6.32812C27 2.8332 24.1668 0 20.6719 0Z" fill="#764ABC"/>
<path d="M17.5689 17.4656C18.3474 17.385 18.9379 16.7139 18.911 15.9087C18.8842 15.1034 18.2131 14.4592 17.4078 14.4592H17.3542C16.522 14.486 15.8778 15.1839 15.9046 16.016C15.9315 16.4187 16.0925 16.7676 16.3341 17.0092C15.4214 18.8077 14.0257 20.123 11.9319 21.2236C10.5092 21.9751 9.03288 22.2436 7.55653 22.0557C6.3486 21.8947 5.40918 21.3577 4.81856 20.472C3.95962 19.1567 3.87915 17.734 4.60383 16.3114C5.11387 15.2913 5.91913 14.5397 6.42917 14.1639C6.32181 13.815 6.16075 13.2244 6.08018 12.7949C2.18806 15.6135 2.59064 19.4251 3.77168 21.2236C4.65761 22.5657 6.45596 23.3978 8.44236 23.3978C8.9792 23.3978 9.51603 23.3441 10.0529 23.2099C13.4888 22.5389 16.0925 20.4988 17.5689 17.4656Z" fill="white"/>
<path d="M22.2932 14.1371C20.2532 11.748 17.2468 10.4328 13.811 10.4328H13.3815C13.1399 9.94954 12.6298 9.62744 12.0662 9.62744H12.0125C11.1804 9.65434 10.5362 10.3522 10.5629 11.1844C10.5898 11.9896 11.2608 12.6338 12.0662 12.6338H12.1199C12.7104 12.607 13.2204 12.2313 13.4352 11.7212H13.9183C15.9583 11.7212 17.891 12.3117 19.6358 13.466C20.9779 14.3518 21.9443 15.5061 22.4811 16.9018C22.9375 18.0292 22.9106 19.1298 22.4274 20.0693C21.6759 21.4919 20.4142 22.2704 18.75 22.2704C17.6763 22.2704 16.6563 21.9483 16.1194 21.7067C15.8241 21.9751 15.2873 22.4046 14.9115 22.673C16.0657 23.2098 17.2468 23.5051 18.3742 23.5051C20.9511 23.5051 22.8569 22.0825 23.5817 20.6598C24.3602 19.103 24.3065 16.4187 22.2932 14.1371Z" fill="white"/>
<path d="M8.65704 17.9219C8.68394 18.7271 9.35493 19.3713 10.1603 19.3713H10.214C11.046 19.3444 11.6903 18.6466 11.6634 17.8144C11.6366 17.0092 10.9655 16.365 10.1603 16.365H10.1065C10.0529 16.365 9.97234 16.365 9.91876 16.3918C8.81809 14.5665 8.36183 12.5801 8.52289 10.4328C8.63025 8.82225 9.16709 7.42637 10.1066 6.27202C10.885 5.27892 12.3882 4.79577 13.4082 4.76888C16.2535 4.71519 17.4615 8.25841 17.5419 9.68119C17.8909 9.76166 18.4815 9.9495 18.8841 10.0838C18.562 5.73539 15.8777 3.48047 13.3008 3.48047C10.885 3.48047 8.65704 5.22524 7.77121 7.80216C6.53649 11.238 7.34174 14.5396 8.84488 17.1434C8.71073 17.3313 8.63015 17.6266 8.65704 17.9219Z" fill="white"/>
</g>
<defs>
<clipPath id="clip0_1037_177">
<rect width="27" height="27" fill="white"/>
</clipPath>
</defs>
</svg>
