<svg width="27" height="24" viewBox="0 0 27 24" fill="none" xmlns="http://www.w3.org/2000/svg">
<path d="M17.5011 0H9.49196L7.49659 2.00919V4.00457H9.49196V2.00919H17.5011V4.00457H19.4965V2.00919L17.5011 0Z" fill="#737373"/>
<path d="M9.49196 0V2.00919H17.5011V0H9.49196Z" fill="#BFBFBF"/>
<path d="M3.83829 4.00467L0 7.84286V21.9907C0 23.0992 0.900683 23.9861 1.99538 23.9861H24.9977C26.1062 23.9861 26.9931 23.0853 26.9931 21.9907V7.85677L23.1409 4.00467H3.83829Z" fill="url(#paint0_radial_736_1132)"/>
<path d="M3.00688 11.5012H24V24H3.00688V11.5012Z" fill="white"/>
<path d="M3.83829 4.00467L0 7.84286V11.5012H26.9931V7.85677L23.1409 4.00467H3.83829Z" fill="#E0E0E0"/>
<path d="M4.50341 22.4897H13.4965V23.9862H4.50341V22.4897Z" fill="#D1D1D1"/>
<path d="M3.00688 9.17321C3.00655 8.9693 3.04647 8.76733 3.12435 8.57887C3.20223 8.39042 3.31655 8.21919 3.46074 8.07501C3.60494 7.93082 3.77617 7.81652 3.96463 7.73865C4.15309 7.66078 4.35507 7.62087 4.55898 7.62122H22.4342C22.6381 7.62088 22.8401 7.6608 23.0285 7.73868C23.217 7.81656 23.3882 7.93086 23.5324 8.07504C23.6765 8.21923 23.7908 8.39045 23.8687 8.5789C23.9466 8.76734 23.9865 8.96931 23.9862 9.17321V11.5012H3.00688V9.17321Z" fill="#4285F4"/>
<path d="M5.99995 9.50578C6.00035 9.60415 5.98127 9.70162 5.94382 9.79258C5.90636 9.88354 5.85126 9.96619 5.7817 10.0357C5.71214 10.1053 5.6295 10.1604 5.53854 10.1979C5.44758 10.2353 5.3501 10.2544 5.25173 10.254C5.15335 10.2544 5.05587 10.2353 4.96489 10.1979C4.87392 10.1604 4.79127 10.1053 4.7217 10.0358C4.65213 9.96622 4.59702 9.88358 4.55955 9.79261C4.52209 9.70164 4.50301 9.60416 4.50341 9.50578C4.503 9.40739 4.52206 9.30989 4.55952 9.21891C4.59698 9.12793 4.65209 9.04527 4.72166 8.9757C4.79123 8.90613 4.87389 8.85103 4.96487 8.81357C5.05585 8.77611 5.15334 8.75704 5.25173 8.75746C5.35011 8.75705 5.4476 8.77613 5.53856 8.8136C5.62953 8.85106 5.71218 8.90617 5.78174 8.97574C5.8513 9.04531 5.90639 9.12797 5.94385 9.21894C5.9813 9.30991 6.00037 9.4074 5.99995 9.50578ZM8.49428 9.50578C8.49468 9.60416 8.4756 9.70164 8.43813 9.79261C8.40067 9.88358 8.34556 9.96622 8.27599 10.0358C8.20642 10.1053 8.12377 10.1604 8.03279 10.1979C7.94182 10.2353 7.84433 10.2544 7.74596 10.254C7.64759 10.2544 7.55011 10.2353 7.45915 10.1979C7.36819 10.1604 7.28554 10.1053 7.21599 10.0357C7.14643 9.96619 7.09133 9.88354 7.05387 9.79258C7.01641 9.70162 6.99734 9.60415 6.99774 9.50578C6.99732 9.4074 7.01639 9.30991 7.05384 9.21894C7.09129 9.12797 7.14639 9.04531 7.21595 8.97574C7.28551 8.90617 7.36816 8.85106 7.45912 8.8136C7.55009 8.77613 7.64758 8.75705 7.74596 8.75746C7.84434 8.75704 7.94184 8.77611 8.03282 8.81357C8.1238 8.85103 8.20646 8.90613 8.27603 8.9757C8.3456 9.04527 8.40071 9.12793 8.43816 9.21891C8.47562 9.30989 8.49469 9.40739 8.49428 9.50578Z" fill="#E6E6E6"/>
<path d="M23.9862 17.418L20.8407 14.2725L19.7875 17.5288L15.4919 13.2471L15.3672 19.8568L16.9607 22.351C17.1963 22.3095 15.769 23.9862 15.769 23.9862H23.9861L23.9862 17.418Z" fill="#BABABA"/>
<path d="M22.0184 17.2933C22.0184 15.5196 20.9792 13.9954 19.4965 13.261V17.4734L17.515 18.5404L15.5057 17.4734V13.2471C14.0231 13.9816 13.0115 15.5196 13.0115 17.2795C13.0115 19.0531 14.0369 20.5774 15.5196 21.3118V23.9862H19.5104V21.3118C20.9792 20.5912 22.0184 19.0531 22.0184 17.2933Z" fill="#4D4D4D"/>
<path d="M4.50341 12.9977H11.5012V20.9931H4.50341V12.9977Z" fill="#D1D1D1"/>
<defs>
<radialGradient id="paint0_radial_736_1132" cx="0" cy="0" r="1" gradientUnits="userSpaceOnUse" gradientTransform="translate(93.5647 970.624) rotate(50.2126) scale(2079.93 1583.38)">
<stop stop-color="#F1F2F2"/>
<stop offset="1" stop-color="#E6E7E8"/>
</radialGradient>
</defs>
</svg>
