<svg width="22" height="24" viewBox="0 0 22 24" fill="none" xmlns="http://www.w3.org/2000/svg">
<path d="M21.6803 20.9968C21.6825 21.4195 21.5948 21.8379 21.4231 22.2241C21.2514 22.6104 20.9995 22.9558 20.6842 23.2373C20.3689 23.5189 19.9973 23.7302 19.5942 23.8573C19.191 23.9844 18.7654 24.0243 18.3457 23.9745C16.8176 23.7484 15.6978 22.4187 15.7351 20.8744V3.12023C15.6981 1.57434 16.8207 0.243894 18.3507 0.0202336C18.7701 -0.0288646 19.1951 0.0116377 19.5977 0.139062C20.0003 0.266485 20.3712 0.477927 20.6859 0.759401C21.0007 1.04087 21.2521 1.38597 21.4235 1.77185C21.5949 2.15773 21.6825 2.57562 21.6803 2.99786V20.9968Z" fill="#F9AB00"/>
<path d="M2.97263 18.0547C4.61438 18.0547 5.94525 19.3857 5.94525 21.0274C5.94525 22.6691 4.61438 24 2.97263 24C1.33087 24 0 22.6691 0 21.0275C0 19.3857 1.33087 18.0547 2.97263 18.0547ZM10.7942 9.04507C9.14476 9.13552 7.86487 10.5191 7.90323 12.1707V20.1555C7.90323 22.3225 8.85673 23.638 10.2537 23.9184C10.6869 24.0062 11.1341 23.9965 11.563 23.89C11.9919 23.7835 12.3917 23.5829 12.7334 23.3026C13.0751 23.0224 13.3502 22.6697 13.5387 22.2699C13.7271 21.8702 13.8242 21.4336 13.823 20.9916V12.0331C13.8237 11.6371 13.7456 11.2449 13.5931 10.8793C13.4406 10.5138 13.2169 10.1823 12.935 9.90421C12.653 9.62607 12.3185 9.40686 11.951 9.25937C11.5834 9.11188 11.1902 9.03898 10.7942 9.04507Z" fill="#E37400"/>
</svg>
