<svg width="28" height="28" viewBox="0 0 28 28" fill="none" xmlns="http://www.w3.org/2000/svg">
<g clip-path="url(#clip0_1046_47)">
<path d="M25.9595 13.79C25.9581 12.9869 25.6909 12.2069 25.1996 11.5716C24.7083 10.9364 24.0205 10.4816 23.2435 10.2783L26.7295 0H9.4547L12.95 10.311C12.1955 10.531 11.5325 10.9895 11.0605 11.618C10.5885 12.2465 10.3329 13.011 10.332 13.797C10.3334 14.3765 10.4731 14.9473 10.7396 15.4619C11.006 15.9765 11.3915 16.42 11.8639 16.7557C11.4917 17.2804 11.068 17.7665 10.5992 18.207C9.73679 19.0284 8.72758 19.6802 7.6242 20.1285C6.6512 19.4717 6.23003 18.3132 6.61036 17.2748C7.43807 17.0177 8.1464 16.4728 8.60718 15.7388C9.06796 15.0047 9.25074 14.1299 9.12245 13.2727C8.99415 12.4156 8.56326 11.6326 7.90775 11.0656C7.25223 10.4986 6.41541 10.185 5.5487 10.1815C4.58585 10.1827 3.6628 10.5658 2.98197 11.2466C2.30113 11.9274 1.9181 12.8505 1.91686 13.8133C1.91686 14.8027 2.3217 15.7103 2.97036 16.359C2.91436 16.4722 2.8572 16.5865 2.80003 16.7078C2.25753 17.8267 1.64153 19.0913 1.40586 20.51C0.935697 23.3473 1.7057 25.6247 3.56303 26.9138C4.56827 27.6228 5.76876 28.0023 6.99886 28C9.13036 28 11.2945 26.9302 13.3864 25.8918C14.8785 25.1545 16.4185 24.3845 17.934 24.0112C18.494 23.8735 19.0774 23.793 19.6934 23.7032C20.9417 23.5247 22.2309 23.3392 23.3894 22.6648C24.051 22.2857 24.6216 21.7665 25.0614 21.1435C25.5011 20.5206 25.7993 19.809 25.935 19.0587C26.138 17.899 25.935 16.7323 25.417 15.7103C25.7647 15.1503 25.9595 14.4958 25.9595 13.79ZM24.3787 13.79C24.3787 14.9158 23.4629 15.8317 22.337 15.8317C21.9131 15.8305 21.4999 15.6976 21.1548 15.4513C20.8097 15.2051 20.5497 14.8576 20.4106 14.4571C20.2716 14.0566 20.2605 13.6228 20.3789 13.2156C20.4972 12.8085 20.7391 12.4483 21.0712 12.1847L21.0794 12.1765C21.1447 12.1275 21.217 12.0785 21.2894 12.0307C21.2894 12.0307 21.2987 12.0307 21.2987 12.0225C21.3314 12.0062 21.3629 11.9817 21.3955 11.9642C21.4037 11.9642 21.4119 11.9572 21.42 11.9572C21.4527 11.9408 21.4935 11.9245 21.5332 11.9082C21.574 11.8918 21.6149 11.8767 21.6475 11.8603C21.6557 11.8603 21.6627 11.8522 21.6709 11.8522C21.7035 11.844 21.7362 11.8277 21.7689 11.8195C21.777 11.8195 21.7922 11.8113 21.8015 11.8113C21.8412 11.8032 21.8739 11.795 21.9147 11.788H21.9229L22.0442 11.7623C22.0524 11.7623 22.0675 11.7623 22.0769 11.7542C22.1095 11.7542 22.141 11.746 22.1737 11.746H22.2145C22.2554 11.746 22.2962 11.7378 22.344 11.7378H22.449C22.4817 11.7378 22.5074 11.7378 22.5389 11.746H22.5552C22.6194 11.7542 22.6847 11.7623 22.75 11.7787C23.2103 11.8773 23.6229 12.1305 23.9192 12.4962C24.2155 12.862 24.3777 13.3193 24.3787 13.79ZM11.7169 1.62167H24.4685L21.5414 10.255C21.42 10.2783 21.2987 10.3192 21.1774 10.36L18.0974 4.0775L15.008 10.3192C14.8867 10.2795 14.756 10.255 14.6265 10.2305L11.7169 1.62167ZM17.5129 13.0842C17.3637 12.3358 16.9805 11.6543 16.4185 11.1382L18.0962 7.75017L19.7902 11.2117C19.2885 11.7133 18.9234 12.355 18.7775 13.0842H17.5129ZM13.4517 11.8032C13.4914 11.795 13.524 11.7868 13.5649 11.7798H13.5882C13.622 11.7705 13.6535 11.7705 13.6862 11.7623H13.7189C13.7515 11.7623 13.776 11.7542 13.8075 11.7542H14.1237C14.1564 11.7542 14.1809 11.7623 14.2054 11.7623C14.2217 11.7623 14.2287 11.7623 14.2462 11.7705C14.2777 11.7787 14.3022 11.7787 14.3349 11.7868C14.343 11.7868 14.3512 11.7868 14.3675 11.795L14.4807 11.8183H14.4889C14.5215 11.8277 14.5542 11.8358 14.5857 11.8522C14.5939 11.8522 14.602 11.8603 14.6184 11.8603C14.6429 11.8685 14.6755 11.8767 14.7 11.8918C14.7082 11.8918 14.7164 11.9 14.7234 11.9C14.756 11.9163 14.7887 11.9245 14.8214 11.9408H14.8295C14.867 11.955 14.9023 11.9742 14.9345 11.998H14.9427C14.9754 12.0143 15.008 12.0377 15.0407 12.054C15.0489 12.054 15.0489 12.0622 15.0559 12.0622C15.0885 12.0785 15.1142 12.103 15.1457 12.1193L15.1539 12.1275C15.2507 12.1998 15.3405 12.2815 15.4292 12.362L15.4374 12.3702C15.7986 12.7507 15.9992 13.2559 15.9974 13.7807C15.9795 14.3105 15.7564 14.8127 15.3752 15.1812C14.9941 15.5496 14.4847 15.7556 13.9545 15.7556C13.4244 15.7556 12.915 15.5496 12.5338 15.1812C12.1527 14.8127 11.9296 14.3105 11.9117 13.7807C11.9104 13.3263 12.0614 12.8847 12.3406 12.5263C12.6197 12.1678 13.0109 11.9132 13.4517 11.8032ZM5.47403 11.746C6.60103 11.746 7.51686 12.663 7.51686 13.7888C7.51686 14.9147 6.60103 15.8317 5.4752 15.8317C4.34936 15.8317 3.4312 14.9158 3.4312 13.79C3.4312 12.6642 4.3482 11.746 5.47403 11.746ZM24.3309 18.7752C24.2387 19.2938 24.0332 19.7857 23.7291 20.2159C23.425 20.646 23.0297 21.0038 22.5715 21.2637C21.6872 21.7747 20.601 21.9368 19.4577 22.099C18.8148 22.1814 18.1763 22.2947 17.5444 22.4385C15.8585 22.8527 14.238 23.6635 12.6654 24.4417C10.654 25.438 8.75703 26.3783 6.99886 26.3783C6.09729 26.3839 5.21726 26.1029 4.48586 25.5757C2.70203 24.3437 2.7907 22.0337 3.00186 20.769C3.1967 19.5848 3.7392 18.4753 4.25836 17.4125C4.29103 17.3483 4.31553 17.2912 4.3482 17.2258C4.52553 17.2912 4.7122 17.3402 4.90703 17.3728C4.59903 19.0913 5.47403 20.8658 7.17736 21.742L7.48536 21.9042L7.8167 21.7828C9.23536 21.28 10.549 20.461 11.7087 19.3667C12.3491 18.7695 12.9151 18.0973 13.3945 17.3647C13.5812 17.3962 13.7679 17.4043 13.9545 17.4043C14.7571 17.4025 15.5364 17.1352 16.1712 16.6441C16.806 16.1531 17.2605 15.4658 17.4639 14.6895H18.8254C19.0274 15.467 19.4819 16.1554 20.1174 16.6468C20.753 17.1381 21.5337 17.4046 22.337 17.4043C23.009 17.4043 23.632 17.2177 24.1687 16.9027C24.3787 17.5093 24.444 18.1428 24.3309 18.7752Z" fill="white"/>
</g>
<defs>
<clipPath id="clip0_1046_47">
<rect width="28" height="28" fill="white"/>
</clipPath>
</defs>
</svg>
