<svg width="24" height="24" viewBox="0 0 24 24" fill="none" xmlns="http://www.w3.org/2000/svg">
<path d="M14.0868 23.0168L9.92092 18.9546L18.8676 9.81841L23.1807 14.0456L14.0868 23.0168Z" fill="#8AB4F8"/>
<path d="M14.1044 5.05665L9.95382 0.818564L0.877485 9.80884C-0.292495 10.9788 -0.292495 12.8756 0.877485 14.0469L9.81733 23.0455L14.0444 19.091L7.23325 11.9279L14.1044 5.05665Z" fill="#4285F4"/>
<path d="M23.1207 9.87831L14.1208 0.878469C12.9496 -0.292823 11.05 -0.292823 9.87873 0.878469C8.70735 2.04985 8.70735 3.94938 9.87873 5.12077L18.8786 14.1206C20.0499 15.2919 21.9494 15.2919 23.1207 14.1206C24.2921 12.9492 24.2921 11.0496 23.1207 9.87831Z" fill="#8AB4F8"/>
<path d="M11.9309 24C13.5501 24 14.8627 22.6874 14.8627 21.0682C14.8627 19.449 13.5501 18.1364 11.9309 18.1364C10.3117 18.1364 8.99909 19.449 8.99909 21.0682C8.99909 22.6874 10.3117 24 11.9309 24Z" fill="#246FDB"/>
</svg>
