<svg width="37" height="22" viewBox="0 0 37 22" fill="none" xmlns="http://www.w3.org/2000/svg">
<path d="M18.5 0C13.5667 0 10.4833 2.44444 9.25 7.33333C11.1 4.88889 13.2583 3.97222 15.725 4.58333C17.1324 4.93201 18.1383 5.9438 19.2517 7.06383C21.0655 8.88834 23.1648 11 27.75 11C32.6833 11 35.7667 8.55556 37 3.66667C35.15 6.11111 32.9917 7.02778 30.525 6.41667C29.1176 6.06799 28.1117 5.0562 26.9983 3.93617C25.1845 2.11166 23.0852 0 18.5 0ZM9.25 11C4.31667 11 1.23333 13.4444 0 18.3333C1.85 15.8889 4.00833 14.9722 6.475 15.5833C7.88237 15.932 8.88829 16.9438 10.0017 18.0638C11.8155 19.8883 13.9148 22 18.5 22C23.4333 22 26.5167 19.5556 27.75 14.6667C25.9 17.1111 23.7417 18.0278 21.275 17.4167C19.8676 17.068 18.8617 16.0562 17.7483 14.9362C15.9345 13.1117 13.8352 11 9.25 11Z" fill="#42C1F4"/>
</svg>
