<svg width="25" height="24" viewBox="0 0 25 24" fill="none" xmlns="http://www.w3.org/2000/svg">
<path d="M12.3077 0C5.50769 0 0 5.50942 0 12.3047C0 17.7423 3.52615 22.3535 8.41539 23.9787C9.03077 24.0946 9.25641 23.7142 9.25641 23.3871C9.25641 23.0949 9.24615 22.3207 9.24103 21.2953C5.81744 22.0377 5.09539 19.6444 5.09539 19.6444C4.53538 18.2243 3.72615 17.8449 3.72615 17.8449C2.61128 17.082 3.81231 17.0973 3.81231 17.0973C5.04821 17.1835 5.69744 18.3647 5.69744 18.3647C6.79487 20.2463 8.57846 19.7029 9.28205 19.3881C9.39282 18.5924 9.70974 18.0499 10.0615 17.7423C7.32821 17.4347 4.45538 16.3765 4.45538 11.6618C4.45538 10.3185 4.93231 9.22133 5.72205 8.36C5.58359 8.04931 5.16821 6.79833 5.82974 5.10337C5.82974 5.10337 6.86051 4.77319 9.21436 6.36459C10.199 6.09082 11.2451 5.95546 12.2913 5.94931C13.3374 5.95546 14.3836 6.09082 15.3682 6.36459C17.7067 4.77319 18.7374 5.10337 18.7374 5.10337C19.399 6.79833 18.9836 8.04931 18.8605 8.36C19.6451 9.22133 20.1221 10.3185 20.1221 11.6618C20.1221 16.3888 17.2451 17.4296 14.5067 17.7321C14.9374 18.1012 15.3374 18.8559 15.3374 20.0084C15.3374 21.6552 15.3221 22.978 15.3221 23.3779C15.3221 23.7009 15.5374 24.0854 16.1682 23.9623C21.0923 22.3484 24.6154 17.7341 24.6154 12.3047C24.6154 5.50942 19.1046 0 12.3077 0Z" fill="white"/>
</svg>
