<svg width="27" height="24" viewBox="0 0 27 24" fill="none" xmlns="http://www.w3.org/2000/svg">
<path d="M0.615659 17.3996L9.50256 2.18533C10.6314 2.84992 16.3237 6.00016 17.243 6.5993L8.35615 21.8144C7.38425 23.0984 -0.615659 19.3481 0.615659 17.3987V17.3996Z" fill="#FBBC04"/>
<path d="M26.1492 17.3993L17.2623 2.18596C16.0199 0.118357 13.3442 -0.633022 11.1464 0.588153C8.94859 1.80933 8.2794 4.43989 9.5218 6.59982L18.4087 21.815C19.6511 23.8817 22.3269 24.6329 24.5247 23.4119C26.6264 22.1906 27.3916 19.4668 26.1492 17.401V17.3993Z" fill="#4285F4"/>
<path d="M4.46102 23.9998C6.92477 23.9998 8.92203 22.0522 8.92203 19.6496C8.92203 17.2471 6.92477 15.2994 4.46102 15.2994C1.99727 15.2994 0 17.2471 0 19.6496C0 22.0522 1.99727 23.9998 4.46102 23.9998Z" fill="#34A853"/>
</svg>
