<svg width="24" height="24" viewBox="0 0 24 24" fill="none" xmlns="http://www.w3.org/2000/svg">
<path d="M17.8112 22.5015C17.7219 22.5487 17.7294 22.5637 17.8149 22.5202C17.8413 22.5095 17.8654 22.494 17.8862 22.4745C17.8862 22.4587 17.8862 22.4587 17.8112 22.5015ZM17.9912 22.404C17.9484 22.4392 17.9484 22.4392 17.9994 22.416C18.0183 22.4071 18.0355 22.3952 18.0504 22.3807C18.0504 22.3605 18.0384 22.365 17.9912 22.404ZM18.1082 22.3335C18.0654 22.3687 18.0654 22.3687 18.1164 22.3455C18.1354 22.3365 18.1526 22.3243 18.1674 22.3095C18.1674 22.2907 18.1554 22.2945 18.1082 22.3335ZM18.2267 22.2637C18.1839 22.299 18.1839 22.299 18.2334 22.275C18.2612 22.26 18.2844 22.2442 18.2844 22.2397C18.2844 22.221 18.2724 22.2247 18.2267 22.2637ZM18.3864 22.158C18.3047 22.2127 18.2762 22.248 18.3512 22.209C18.4014 22.1782 18.4869 22.1107 18.4719 22.1107C18.4397 22.1227 18.4127 22.143 18.3857 22.158H18.3864ZM11.2144 0.00551263C11.1597 0.00926271 10.9954 0.024263 10.8514 0.0362633C7.44052 0.34527 4.24937 2.18131 2.22668 5.00961C1.10889 6.56083 0.382307 8.35911 0.108747 10.2515C0.0119996 10.9115 0 11.1065 0 12.0013C0 12.8953 0.0119996 13.0873 0.108747 13.7473C0.761976 18.2556 3.96888 22.0402 8.31574 23.4427C9.09797 23.6925 9.91769 23.865 10.8514 23.9708C11.2144 24.0098 12.7841 24.0098 13.1471 23.9708C14.761 23.7907 16.1237 23.3925 17.4722 22.7047C17.6792 22.5997 17.7182 22.572 17.6904 22.5487C17.0326 21.6791 16.3804 20.8053 15.7338 19.9274L13.8161 17.3376L11.4139 13.7788C10.6149 12.5872 9.80761 11.4012 8.99222 10.2207C8.98397 10.2207 8.97347 11.8025 8.96897 13.7315C8.96072 17.1104 8.96072 17.2476 8.91797 17.3256C8.87698 17.4198 8.80353 17.4962 8.71098 17.5409C8.63673 17.5761 8.56998 17.5836 8.21524 17.5836H7.80951L7.70376 17.5176C7.63753 17.4751 7.58371 17.4159 7.54776 17.3459L7.49677 17.2401L7.50877 7.83342L7.58301 7.73967C7.63043 7.68203 7.6888 7.63436 7.75476 7.59942C7.853 7.55217 7.892 7.54467 8.29774 7.54467C8.77398 7.54467 8.85272 7.56342 8.97797 7.70067C9.95109 9.1481 10.9158 10.6012 11.8721 12.0598C13.4313 14.4238 15.5598 17.6496 16.606 19.2322L18.5087 22.1115L18.6024 22.0492C19.5168 21.4415 20.3455 20.7138 21.0661 19.8854C22.5777 18.1552 23.5586 16.0259 23.8913 13.7525C23.988 13.0925 24 12.8968 24 12.0028C24 11.108 23.988 10.9167 23.8913 10.2567C23.238 5.74838 20.0311 1.9638 15.6843 0.560524C14.8719 0.303209 14.0357 0.128078 13.1883 0.0377633C12.9611 0.0145128 11.4101 -0.0132377 11.2151 0.00701266L11.2144 0.00551263ZM16.1245 7.26341C16.1803 7.29081 16.2301 7.32907 16.2709 7.37595C16.3117 7.42283 16.3428 7.47738 16.3622 7.53642C16.3825 7.59942 16.3862 8.90369 16.3825 11.8415L16.3742 16.0596L15.6325 14.9196L14.8863 13.7788V10.7165C14.8863 8.73119 14.8945 7.61817 14.905 7.56342C14.9417 7.43788 15.026 7.3316 15.1398 7.26716C15.2328 7.21991 15.2688 7.21616 15.64 7.21616C15.9873 7.21616 16.0465 7.21991 16.1245 7.26341Z" fill="white"/>
</svg>
