<svg width="29" height="25" viewBox="0 0 29 25" fill="none" xmlns="http://www.w3.org/2000/svg">
<path d="M23.3753 8.48478C23.0907 8.38846 22.7959 8.29733 22.4923 8.21114C22.5422 8.01087 22.588 7.8132 22.6287 7.61888C23.2971 4.42814 22.8601 1.85766 21.3678 1.01135C19.937 0.199848 17.5968 1.04597 15.2334 3.06874C15.0062 3.26325 14.7783 3.46919 14.5505 3.68501C14.3987 3.54222 14.2471 3.40422 14.096 3.27223C11.6191 1.10935 9.13634 0.197879 7.64555 1.04664C6.21603 1.86049 5.79269 4.27699 6.39433 7.30088C6.45243 7.59295 6.52034 7.89122 6.59714 8.19448C6.24576 8.29258 5.90654 8.39715 5.58197 8.5084C2.67806 9.50409 0.823486 11.0646 0.823486 12.6832C0.823486 14.3549 2.81437 16.0317 5.83902 17.0484C6.07771 17.1287 6.32539 17.2045 6.58063 17.2766C6.49778 17.6046 6.42572 17.926 6.36523 18.2395C5.79157 21.2109 6.23956 23.5703 7.66527 24.379C9.13791 25.2142 11.6094 24.3557 14.016 22.2868C14.2062 22.1233 14.3971 21.9499 14.5884 21.7681C14.8362 22.0028 15.0837 22.225 15.3299 22.4334C17.6609 24.4062 19.9633 25.2028 21.3877 24.3918C22.8588 23.5542 23.337 21.0197 22.7162 17.936C22.6688 17.7004 22.6136 17.4598 22.5517 17.215C22.7253 17.1645 22.8956 17.1124 23.0618 17.0582C26.2062 16.0336 28.2521 14.3773 28.2521 12.6832C28.2521 11.0587 26.3377 9.48772 23.3753 8.48478ZM22.6933 15.9644C22.5433 16.0132 22.3894 16.0604 22.2326 16.1062C21.8855 15.0254 21.417 13.8762 20.8436 12.6888C21.3907 11.5297 21.8411 10.3952 22.1785 9.32144C22.4591 9.40129 22.7315 9.48551 22.9939 9.57439C25.5321 10.4337 27.0803 11.7042 27.0803 12.6832C27.0803 13.726 25.4082 15.0797 22.6933 15.9644ZM21.5667 18.1597C21.8412 19.5233 21.8804 20.7562 21.6986 21.7199C21.5353 22.5859 21.2067 23.1633 20.8005 23.3945C19.9361 23.8866 18.0876 23.247 16.094 21.5598C15.8655 21.3664 15.6353 21.1599 15.4044 20.9414C16.1772 20.1101 16.9497 19.1437 17.7035 18.0704C19.0295 17.9547 20.2822 17.7655 21.4183 17.5072C21.4742 17.7292 21.5239 17.9469 21.5667 18.1597ZM10.1745 23.3095C9.32998 23.6028 8.65735 23.6112 8.25075 23.3807C7.38557 22.8899 7.0259 20.9955 7.51651 18.4544C7.57271 18.1633 7.63959 17.8644 7.71668 17.5588C8.84029 17.8032 10.0838 17.979 11.413 18.085C12.1719 19.1352 12.9667 20.1006 13.7675 20.9458C13.5926 21.1119 13.4183 21.2701 13.245 21.4191C12.1808 22.334 11.1143 22.983 10.1745 23.3095ZM6.21798 15.958C4.88054 15.5085 3.77603 14.9242 3.01894 14.2866C2.33864 13.7136 1.99518 13.1448 1.99518 12.6832C1.99518 11.701 3.48421 10.4481 5.96767 9.59657C6.269 9.49324 6.58444 9.39587 6.9118 9.3044C7.25502 10.4024 7.70526 11.5504 8.24861 12.7113C7.69823 13.8893 7.24159 15.0556 6.895 16.1665C6.66163 16.1005 6.43553 16.0311 6.21798 15.958ZM7.54424 7.07958C7.02878 4.48878 7.37112 2.53438 8.23259 2.04396C9.15021 1.52151 11.1793 2.26641 13.3179 4.13395C13.4546 4.25332 13.5919 4.37825 13.7295 4.50751C12.9326 5.34907 12.1451 6.30716 11.3929 7.3512C10.1029 7.46879 8.86811 7.65768 7.7328 7.91062C7.66142 7.62824 7.59819 7.35081 7.54424 7.07958ZM19.3757 9.95274C19.1043 9.4917 18.8257 9.04156 18.5416 8.60371C19.4167 8.71252 20.2552 8.85695 21.0426 9.03369C20.8062 9.77878 20.5116 10.5578 20.1648 11.3565C19.916 10.8919 19.6528 10.4235 19.3757 9.95274ZM14.5509 5.33106C15.0913 5.90691 15.6326 6.54983 16.1649 7.24739C15.6285 7.22247 15.0854 7.2095 14.5378 7.2095C13.9954 7.2095 13.4563 7.22218 12.9231 7.24667C13.456 6.55559 14.0019 5.91353 14.5509 5.33106ZM9.69512 9.96071C9.42401 10.423 9.16574 10.8889 8.92084 11.3556C8.57962 10.5597 8.28771 9.77715 8.04926 9.02149C8.83184 8.84926 9.66636 8.70844 10.5359 8.6017C10.2479 9.04358 9.96696 9.49713 9.69512 9.96071ZM10.561 16.8469C9.66255 16.7483 8.81548 16.6148 8.0331 16.4473C8.27536 15.6781 8.57371 14.8788 8.92216 14.0658C9.16769 14.5322 9.42698 14.9983 9.69976 15.4616C9.9776 15.9336 10.2655 16.396 10.561 16.8469ZM14.5833 20.1166C14.0279 19.5273 13.474 18.8755 12.933 18.1743C13.4582 18.1946 13.9936 18.2049 14.5378 18.2049C15.0968 18.2049 15.6495 18.1925 16.1935 18.1687C15.6594 18.8825 15.1201 19.5354 14.5833 20.1166ZM20.1759 14.0244C20.5425 14.8462 20.8516 15.6413 21.097 16.3974C20.3017 16.5758 19.4431 16.7195 18.5384 16.8263C18.8231 16.3825 19.1042 15.9247 19.3804 15.4537C19.6598 14.9772 19.9251 14.5 20.1759 14.0244ZM18.3654 14.878C17.9366 15.6091 17.4965 16.307 17.0496 16.9659C16.2357 17.0231 15.3948 17.0526 14.5378 17.0526C13.6842 17.0526 12.8539 17.0265 12.0544 16.9755C11.5895 16.308 11.1398 15.608 10.7138 14.8843C10.2888 14.1625 9.89788 13.4346 9.54352 12.7109C9.89778 11.9854 10.2878 11.2567 10.7103 10.5363C11.1339 9.81388 11.5796 9.11743 12.0402 8.45415C12.8559 8.39351 13.6924 8.36186 14.5377 8.36186C15.3869 8.36186 16.2245 8.39375 17.04 8.45492C17.4935 9.11335 17.9363 9.80769 18.3615 10.5302C18.7916 11.2608 19.1867 11.9846 19.544 12.6945C19.1878 13.4166 18.7936 14.1477 18.3654 14.878ZM20.7826 2.00968C21.7011 2.53059 22.0582 4.63144 21.4812 7.3863C21.4443 7.56208 21.4029 7.74113 21.3579 7.92257C20.2199 7.66435 18.9842 7.47219 17.6905 7.35283C16.9368 6.29732 16.1558 5.33774 15.3719 4.50698C15.5826 4.30758 15.7931 4.11744 16.0027 3.938C18.0277 2.2049 19.9203 1.52064 20.7826 2.00968ZM14.5378 10.2744C15.8904 10.2744 16.9871 11.3529 16.9871 12.6832C16.9871 14.0135 15.8904 15.092 14.5378 15.092C13.1851 15.092 12.0885 14.0135 12.0885 12.6832C12.0885 11.3529 13.1851 10.2744 14.5378 10.2744Z" fill="#42C1F4"/>
</svg>
