<svg width="22" height="24" viewBox="0 0 22 24" fill="none" xmlns="http://www.w3.org/2000/svg">
<path d="M3 17.5L1.5 3L18.5 2V10.5L17.5 17.5L14 20.5H7L3 17.5Z" fill="white"/>
<path d="M0 0L1.92344 21.5936L10.5541 24L19.2089 21.5848L21.1339 0H0ZM17.138 4.94718L16.4977 12.1407L16.4997 12.1795L16.497 12.2689L16.0421 17.2979L15.992 17.7448L10.5669 19.2453L10.5627 19.2491L5.14708 17.7402L4.78037 13.5817H7.43607L7.6245 15.6962L10.5677 16.4939L10.5669 16.4954L13.5211 15.6861L13.8332 12.2427H7.65778L7.60479 11.6606L7.48409 10.2968L7.42077 9.56457H14.068L14.3098 6.88649H4.18546L4.13247 6.30478L4.01196 4.94068L3.94845 4.20841H17.2013L17.138 4.94718Z" fill="#2C7BFF"/>
</svg>
