<svg width="22" height="24" viewBox="0 0 22 24" fill="none" xmlns="http://www.w3.org/2000/svg">
<path d="M10.6199 24C10.2988 24 9.98162 23.916 9.6994 23.753L6.77243 22.015C6.33463 21.77 6.54804 21.683 6.69264 21.633C7.27505 21.429 7.39372 21.383 8.01602 21.028C8.08183 20.991 8.1676 21.004 8.23442 21.043L10.4832 22.382C10.5253 22.4038 10.572 22.4151 10.6194 22.4151C10.6667 22.4151 10.7134 22.4038 10.7555 22.382L19.5254 17.305C19.5662 17.2804 19.5999 17.2457 19.6233 17.2041C19.6467 17.1626 19.659 17.1157 19.6591 17.068V6.91908C19.6592 6.87044 19.6468 6.82259 19.623 6.78019C19.5993 6.73778 19.565 6.70226 19.5235 6.67708L10.7575 1.6051C10.7164 1.58122 10.6698 1.56864 10.6224 1.56864C10.5749 1.56864 10.5283 1.58122 10.4872 1.6051L1.72128 6.67708C1.67938 6.70157 1.64456 6.73658 1.62025 6.77866C1.59595 6.82074 1.58299 6.86845 1.58266 6.91708V17.065C1.58266 17.162 1.63551 17.255 1.71928 17.301L4.1207 18.692C5.42512 19.346 6.22193 18.576 6.22193 17.801V7.78508C6.22139 7.75149 6.22761 7.71813 6.24021 7.687C6.25281 7.65587 6.27154 7.62761 6.29527 7.6039C6.31901 7.58019 6.34727 7.56153 6.37836 7.54901C6.40945 7.5365 6.44274 7.5304 6.47624 7.53108H7.58719C7.72581 7.53108 7.8395 7.64108 7.8395 7.78508V17.805C7.8395 19.549 6.8921 20.55 5.24262 20.55C4.73501 20.55 4.33511 20.55 3.22017 20L0.919478 18.67C0.639829 18.5063 0.40781 18.2719 0.246498 17.9904C0.0851859 17.7088 0.000202333 17.3898 0 17.065V6.91708C0 6.25708 0.351037 5.64009 0.919478 5.31509L9.6994 0.236111C9.98214 0.0811901 10.2992 0 10.6214 0C10.9436 0 11.2606 0.0811901 11.5433 0.236111L20.3113 5.31609C20.8777 5.64509 21.2308 6.25908 21.2308 6.91908V17.068C21.23 17.3923 21.1448 17.7107 20.9835 17.9917C20.8222 18.2727 20.5905 18.5065 20.3113 18.67L11.5433 23.749C11.2621 23.9112 10.9433 23.996 10.6189 23.995V24H10.6199ZM13.3284 17.007C9.49097 17.007 8.68717 15.241 8.68717 13.759C8.68717 13.619 8.79986 13.506 8.94048 13.506H10.0734C10.199 13.506 10.3037 13.597 10.3237 13.721C10.4952 14.879 11.0048 15.463 13.3255 15.463C15.1734 15.463 15.9592 15.044 15.9592 14.061C15.9592 13.495 15.7348 13.0751 12.8637 12.7931C10.4623 12.5551 8.97838 12.0251 8.97838 10.0991C8.97838 8.32407 10.4713 7.26808 12.9714 7.26808C15.7787 7.26808 17.1709 8.24507 17.3464 10.3451C17.3495 10.3804 17.3451 10.416 17.3337 10.4496C17.3223 10.4831 17.3041 10.514 17.2802 10.5401C17.2563 10.5662 17.2272 10.5871 17.1949 10.6014C17.1625 10.6157 17.1275 10.6231 17.0921 10.6231H15.9522C15.8948 10.623 15.8392 10.6032 15.7946 10.567C15.7499 10.5308 15.719 10.4803 15.7069 10.4241C15.4327 9.20707 14.7695 8.81707 12.9674 8.81707C10.95 8.81707 10.7146 9.52207 10.7146 10.0501C10.7146 10.6901 10.9909 10.8781 13.7134 11.2391C16.409 11.5981 17.6895 12.1041 17.6895 14.004C17.6895 15.919 16.0949 17.018 13.3165 17.018L13.3284 17.007Z" fill="#36B609"/>
</svg>
