<svg width="22" height="27" viewBox="0 0 22 27" fill="none" xmlns="http://www.w3.org/2000/svg">
<g clip-path="url(#clip0_1046_43)">
<path d="M21.8526 20.513L12.7185 0.849172C12.605 0.607221 12.429 0.400875 12.2093 0.25197C11.9896 0.103066 11.7343 0.0171409 11.4703 0.00328869C11.2059 -0.0146756 10.9417 0.0412044 10.7064 0.164852C10.4711 0.288499 10.2737 0.47518 10.1358 0.704592L0.228916 16.9707C0.0782775 17.2163 -0.000171835 17.5004 0.00276509 17.7895C0.00570201 18.0787 0.0899035 18.3611 0.245498 18.6035L5.089 26.2071C5.27224 26.4926 5.5416 26.7103 5.8569 26.8279C6.17219 26.9454 6.51653 26.9565 6.83854 26.8594L20.8945 22.6446C21.1062 22.5819 21.3021 22.4738 21.469 22.3278C21.6359 22.1817 21.7699 22.001 21.862 21.7979C21.9527 21.5958 21.999 21.3761 21.9975 21.1541C21.996 20.9321 21.9468 20.7131 21.8533 20.5123L21.8526 20.513ZM19.8076 21.3564L7.88029 24.9317C7.51643 25.0414 7.16717 24.7217 7.24287 24.3494L11.5042 3.66536C11.5838 3.27839 12.111 3.21707 12.2777 3.57521L20.1661 20.5567C20.201 20.6324 20.2193 20.7148 20.2197 20.7983C20.2201 20.8819 20.2026 20.9645 20.1685 21.0405C20.1343 21.1165 20.0843 21.1841 20.0219 21.2386C19.9595 21.2931 19.8862 21.3333 19.807 21.3563L19.8076 21.3564Z" fill="white"/>
</g>
<defs>
<clipPath id="clip0_1046_43">
<rect width="22" height="27" fill="white"/>
</clipPath>
</defs>
</svg>
