<svg width="40" height="24" viewBox="0 0 40 24" fill="none" xmlns="http://www.w3.org/2000/svg">
<path d="M34.5039 11.8525C34.5039 12.5926 34.1271 12.7126 33.1869 12.7126C32.1934 12.7126 32.01 12.5459 31.9033 11.7891C31.7066 9.86872 30.4097 8.23838 28.2342 8.05501C27.5374 7.99833 27.3707 7.73828 27.3707 6.8781C27.3707 6.07793 27.4941 5.69785 28.1142 5.69785C31.89 5.71452 34.5039 8.75182 34.5039 11.8491V11.8525ZM40.005 11.8525C40.005 6.09127 36.1075 0 27.1023 0H9.20192C8.83851 0 8.61179 0.183371 8.61179 0.516774C8.61179 0.698479 8.74849 0.86518 8.87185 0.950197C9.51865 1.46697 10.4889 2.04042 11.7558 2.67722C12.9944 3.29735 13.9612 3.7041 14.9281 4.09752C15.3382 4.26422 15.4882 4.44426 15.4882 4.67097C15.4882 4.98771 15.2615 5.18441 14.8214 5.18441H0.620129C0.196708 5.18441 0 5.4578 0 5.72786C0 5.95457 0.0733486 6.15128 0.270056 6.34799C1.4203 7.55824 3.26401 9.00854 5.9379 10.6889C8.38175 12.2059 10.9056 13.5895 13.4945 14.8431C13.8879 15.0265 14.0079 15.2365 14.0079 15.4632C13.9946 15.7199 13.7979 15.93 13.3411 15.93H6.83476C6.47468 15.93 6.2613 16.13 6.2613 16.4301C6.2613 16.5968 6.39467 16.8068 6.57804 16.9735C8.05835 18.3205 10.4305 19.7875 13.5912 21.1311C17.8087 22.9314 22.0829 24 26.8939 24C36.0042 24 40.0083 17.1869 40.0083 11.8491L40.005 11.8525ZM28.1142 20.3609C23.4566 20.3609 19.5591 16.5668 19.5591 11.8358C19.5591 7.17816 23.4432 3.43405 28.1142 3.43405C32.8868 3.43405 36.6343 7.16816 36.6343 11.8358C36.6405 12.9566 36.4244 14.0676 35.9984 15.1044C35.5725 16.1411 34.9452 17.0832 34.1529 17.876C33.3606 18.6688 32.4189 19.2966 31.3824 19.7231C30.3458 20.1497 29.235 20.3664 28.1142 20.3609Z" fill="#FF3D00"/>
</svg>
